<?xml version="1.0" standalone="no"?>
<!DOCTYPE svg PUBLIC "-//W3C//DTD SVG 20010904//EN"
 "http://www.w3.org/TR/2001/REC-SVG-20010904/DTD/svg10.dtd">
<svg version="1.0" xmlns="http://www.w3.org/2000/svg"
 width="1472.000000pt" height="832.000000pt" viewBox="0 0 1472.000000 832.000000"
 preserveAspectRatio="xMidYMid meet">

<g transform="translate(0.000000,832.000000) scale(0.100000,-0.100000)"
fill="#000000" stroke="none">
<path d="M8134 4926 c-90 -21 -152 -56 -217 -125 -66 -68 -90 -117 -107 -211
-25 -138 16 -269 110 -353 57 -52 162 -108 310 -167 205 -82 265 -123 305
-204 74 -151 -5 -336 -164 -383 -150 -43 -335 -1 -495 114 -27 20 -52 31 -57
26 -5 -5 -20 -42 -34 -83 -24 -70 -24 -74 -8 -92 25 -28 208 -115 283 -135
101 -27 285 -24 373 6 78 26 158 77 204 129 115 129 136 367 46 521 -61 105
-158 173 -353 251 -289 116 -350 169 -350 303 0 66 37 145 86 182 58 44 114
58 218 53 80 -3 101 -8 167 -39 41 -20 91 -50 111 -68 l36 -31 26 65 c14 35
28 82 32 103 l6 38 -81 37 c-44 21 -109 44 -143 52 -93 22 -232 27 -304 11z"/>
<path d="M9630 4929 c-321 -41 -596 -288 -681 -610 -29 -113 -32 -292 -5 -399
38 -151 118 -290 233 -402 69 -68 112 -98 215 -149 106 -54 174 -70 313 -76
186 -8 317 23 461 109 256 153 405 406 406 693 1 191 -36 318 -133 464 -141
214 -344 339 -594 370 -100 12 -121 12 -215 0z m253 -185 c81 -18 186 -67 260
-121 99 -73 199 -223 233 -348 20 -71 19 -249 -1 -326 -58 -222 -242 -406
-467 -466 -82 -22 -232 -21 -318 2 -240 62 -428 262 -476 505 -89 454 318 854
769 754z"/>
<path d="M9684 4256 c-115 -50 -124 -233 -15 -294 108 -61 238 2 257 124 18
123 -123 222 -242 170z"/>
<path d="M5868 4912 l-1408 -2 0 -800 0 -800 910 0 910 0 0 720 0 720 360 0
360 0 0 -719 c0 -396 3 -722 8 -724 4 -2 46 -1 94 1 l88 4 2 717 3 716 248 3
248 2 -3 83 -3 82 -205 0 c-113 0 -838 -1 -1612 -3z m227 -407 l0 -240 -725 0
-725 0 -3 230 c-1 126 0 235 3 242 3 11 148 13 727 11 l723 -3 0 -240z m0
-720 l0 -300 -727 -3 -728 -2 0 305 0 305 728 -2 727 -3 0 -300z"/>
<path d="M10796 4911 c-8 -13 -5 -1328 3 -1491 l6 -115 40 2 c22 0 61 1 87 2
l48 1 2 627 3 627 155 -174 c136 -153 212 -240 311 -355 24 -28 88 -101 163
-185 17 -19 67 -76 111 -125 44 -50 103 -117 130 -150 27 -33 55 -64 61 -70 6
-5 46 -52 89 -103 44 -51 89 -95 101 -98 11 -3 49 -3 85 -1 l64 5 0 803 0 804
-85 0 -85 0 -5 -656 -5 -656 -92 106 c-51 58 -107 122 -124 141 -17 19 -54 62
-82 94 -76 86 -76 86 -148 167 -158 177 -638 726 -671 769 -25 31 -32 34 -91
38 -40 3 -67 0 -71 -7z"/>
<path d="M2450 4110 l0 -800 175 0 175 0 0 800 0 800 -175 0 -175 0 0 -800z"/>
<path d="M2940 4751 l0 -161 327 0 c306 0 329 -1 368 -20 92 -45 113 -171 42
-249 -12 -13 -40 -32 -62 -42 -36 -17 -70 -19 -357 -19 l-318 0 0 -160 0 -159
388 -3 387 -3 34 -24 c37 -27 70 -90 71 -135 0 -45 -35 -108 -77 -136 l-36
-25 -386 -5 -386 -5 0 -145 0 -145 420 0 c413 0 421 0 476 23 217 87 323 299
264 527 -25 96 -94 189 -168 226 -43 23 -45 15 16 84 10 11 33 49 50 85 31 62
32 70 32 185 0 120 0 122 -38 199 -51 101 -122 172 -223 223 l-78 38 -373 3
-373 3 0 -160z"/>
</g>
</svg>
